<svg width="124" height="36" viewBox="0 0 124 36" fill="none" xmlns="http://www.w3.org/2000/svg">
<g id="HubSpot svg" clip-path="url(#clip0_5301_3196)">
<g id="Group">
<path id="Vector" d="M13.3316 5.77661V15.6185H4.28981V5.77661H0V29.2707H4.29097V19.7481H13.3305V29.2707H17.6226V5.77661H13.3316ZM31.3572 21.677C31.3572 22.6187 30.9831 23.5218 30.3172 24.1877C29.6513 24.8536 28.7482 25.2276 27.8065 25.2276C26.8648 25.2276 25.9617 24.8536 25.2958 24.1877C24.63 23.5218 24.2559 22.6187 24.2559 21.677V11.6133H20.1856V21.677C20.1856 23.6962 20.9877 25.6327 22.4155 27.0605C23.8433 28.4883 25.7798 29.2904 27.799 29.2904C29.8182 29.2904 31.7547 28.4883 33.1825 27.0605C34.6103 25.6327 35.4124 23.6962 35.4124 21.677V11.6133H31.3572V21.677ZM61.517 12.6503C61.517 10.5867 62.8816 9.93287 64.3761 9.93287C65.5816 9.93287 67.1725 10.8503 68.2142 11.9628L70.8794 8.82035C69.5485 7.02035 66.8497 5.77661 64.6397 5.77661C60.2234 5.77661 57.0298 8.3628 57.0298 12.6503C57.0298 20.6051 66.7521 18.0805 66.7521 22.5329C66.7521 23.9055 65.419 25.1179 63.893 25.1179C61.4857 25.1179 60.7053 23.9415 59.5997 22.6966L56.6408 25.7729C58.5337 28.0955 60.8679 29.2753 63.6631 29.2753C67.8588 29.2753 71.2336 26.6578 71.2336 22.5654C71.2336 13.7349 61.5101 16.4791 61.5101 12.6503M121.665 25.5174C119.26 25.5174 118.576 24.4769 118.576 22.8836V15.8287H122.315V12.2543H118.576V7.53829L114.449 9.39055V23.7604C114.449 27.4358 116.985 29.2881 120.462 29.2881C121.008 29.2974 121.553 29.2533 122.09 29.158L123.097 25.4512C122.643 25.4825 122.121 25.5139 121.665 25.5139M46.8511 11.7305C44.8351 11.7305 43.4276 12.3158 42.0666 13.6502V5.91713H37.9905V20.2509C37.9905 25.6161 41.8692 29.2927 46.2286 29.2927C51.0643 29.2927 55.3181 25.5511 55.3181 20.5134C55.3181 15.5384 51.4034 11.734 46.8511 11.734M46.8256 25.1899C46.2181 25.1899 45.6165 25.0702 45.0553 24.8378C44.494 24.6053 43.984 24.2645 43.5545 23.835C43.1249 23.4054 42.7842 22.8954 42.5517 22.3342C42.3192 21.7729 42.1996 21.1714 42.1996 20.5639C42.1996 19.9564 42.3192 19.3549 42.5517 18.7936C42.7842 18.2324 43.1249 17.7224 43.5545 17.2928C43.984 16.8633 44.494 16.5225 45.0553 16.29C45.6165 16.0576 46.2181 15.9379 46.8256 15.9379C48.0524 15.9379 49.2291 16.4253 50.0966 17.2928C50.9642 18.1604 51.4516 19.337 51.4516 20.5639C51.4516 21.7908 50.9642 22.9674 50.0966 23.835C49.2291 24.7025 48.0524 25.1899 46.8256 25.1899ZM91.1195 20.2997C91.1195 15.2527 86.875 11.5204 82.0301 11.5204C77.6717 11.5204 73.7919 15.1958 73.7919 20.5622V34.9041H77.868V27.1606C79.2267 28.4926 80.6365 29.0802 82.6502 29.0802C87.2025 29.0802 91.1195 25.2758 91.1195 20.2997ZM87.2594 20.2486C87.2594 21.4755 86.772 22.6521 85.9044 23.5197C85.0369 24.3872 83.8603 24.8746 82.6334 24.8746C81.4065 24.8746 80.2298 24.3872 79.3623 23.5197C78.4947 22.6521 78.0074 21.4755 78.0074 20.2486C78.0074 19.0217 78.4947 17.8451 79.3623 16.9775C80.2298 16.11 81.4065 15.6226 82.6334 15.6226C83.8603 15.6226 85.0369 16.11 85.9044 16.9775C86.772 17.8451 87.2594 19.0217 87.2594 20.2486Z" fill="#1C3F3A"/>
<path id="Vector_2" d="M104.291 11.3226V7.22671C104.832 6.97375 105.29 6.57226 105.612 6.06897C105.934 5.56569 106.107 4.98132 106.109 4.38387V4.28981C106.109 2.54787 104.697 1.13574 102.955 1.13574H102.861C102.025 1.13574 101.222 1.46805 100.631 2.05955C100.039 2.65105 99.7071 3.4533 99.7071 4.28981V4.38387C99.7099 4.98132 99.8823 5.56569 100.204 6.06897C100.526 6.57226 100.984 6.97375 101.526 7.22671V11.3226C99.9701 11.5608 98.505 12.2058 97.2789 13.1923L86.0457 4.4431C86.1258 4.15394 86.1676 3.85665 86.1723 3.55819C86.1737 2.85527 85.9665 2.16773 85.5771 1.58254C85.1877 0.997346 84.6335 0.540793 83.9845 0.270629C83.3356 0.000465333 82.6211 -0.0711722 81.9315 0.0647783C81.2418 0.200729 80.608 0.538159 80.1101 1.03439C79.6123 1.53062 79.2728 2.16335 79.1345 2.85256C78.9963 3.54176 79.0657 4.25647 79.3337 4.90628C79.6017 5.55609 80.0565 6.11181 80.6404 6.50315C81.2243 6.89448 81.9112 7.10386 82.6141 7.10478C83.229 7.10188 83.8325 6.93771 84.3642 6.62865L95.4254 15.2361C94.4318 16.7373 93.9134 18.503 93.9378 20.3031C93.9622 22.1031 94.5284 23.8541 95.5625 25.3277L92.1982 28.6932C91.9263 28.6062 91.6429 28.56 91.3574 28.5561C90.7804 28.5566 90.2165 28.7281 89.737 29.0489C89.2574 29.3698 88.8837 29.8256 88.6631 30.3587C88.4425 30.8919 88.3849 31.4785 88.4976 32.0444C88.6103 32.6102 88.8882 33.13 89.2962 33.538C89.7042 33.946 90.224 34.2239 90.7899 34.3366C91.3557 34.4493 91.9423 34.3917 92.4755 34.1711C93.0086 33.9505 93.4644 33.5768 93.7853 33.0972C94.1061 32.6177 94.2776 32.0538 94.2781 31.4768C94.2743 31.1913 94.2282 30.9079 94.1411 30.636L97.4693 27.3066C98.5546 28.1421 99.8168 28.7182 101.159 28.9906C102.501 29.263 103.888 29.2245 105.214 28.8781C106.539 28.5318 107.767 27.8866 108.804 26.9922C109.842 26.0978 110.661 24.9778 111.198 23.718C111.736 22.4582 111.978 21.0921 111.906 19.7243C111.834 18.3565 111.45 17.0233 110.783 15.8268C110.117 14.6304 109.185 13.6024 108.059 12.8216C106.934 12.0409 105.645 11.5281 104.291 11.3226ZM102.911 24.7935C102.296 24.8105 101.684 24.7039 101.111 24.4802C100.537 24.2565 100.015 23.9202 99.5737 23.4911C99.1326 23.062 98.7821 22.5489 98.5427 21.9821C98.3033 21.4152 98.18 20.8061 98.18 20.1908C98.18 19.5754 98.3033 18.9663 98.5427 18.3995C98.7821 17.8326 99.1326 17.3195 99.5737 16.8904C100.015 16.4613 100.537 16.125 101.111 15.9013C101.684 15.6776 102.296 15.5711 102.911 15.588C104.103 15.6297 105.233 16.1325 106.062 16.9905C106.89 17.8484 107.354 18.9945 107.354 20.1874C107.355 21.3803 106.893 22.5268 106.065 23.3856C105.237 24.2444 104.108 24.7483 102.916 24.7912" fill="#1C3F3A"/>
</g>
</g>
<defs>
<clipPath id="clip0_5301_3196">
<rect width="123.097" height="36" fill="white"/>
</clipPath>
</defs>
</svg>
