<svg width="146" height="36" viewBox="0 0 146 36" fill="none" xmlns="http://www.w3.org/2000/svg">
<g id="OpenAI svg" clip-path="url(#clip0_5301_3201)">
<g id="Group">
<path id="Vector" d="M104.082 14C101.954 14 100.402 14.7556 99.6477 16.1333L99.2486 16.8889V14.3556H95.7452V29.6889H99.426V20.5778C99.426 18.4 100.623 17.1556 102.663 17.1556C104.615 17.1556 105.768 18.3556 105.768 20.4889V29.6889H109.448V19.8222C109.448 16.1778 107.453 14 104.082 14ZM86.2549 14C81.9089 14 79.2481 16.7111 79.2481 21.0667V23.2C79.2481 27.4222 81.9532 30 86.3436 30C89.2705 30 91.3105 28.9333 92.5965 26.7111L90.3348 25.3778C89.3592 26.6667 87.8514 27.4222 86.3436 27.4222C84.1263 27.4222 82.7958 26.0444 82.7958 23.7333V23.1111H93.04V20.5778C93.04 16.6222 90.3792 14 86.2549 14ZM89.714 20.7556H82.7958V20.4C82.7958 17.8667 84.0376 16.4889 86.2549 16.4889C88.4279 16.4889 89.714 17.8667 89.714 20.1778V20.7556ZM145.946 11.8667V8.93334H133.218V11.8667H137.697V26.7556H133.218V29.6889H145.946V26.7556H141.467V11.8667H145.946ZM49.4913 8.48889C43.8148 8.48889 40.2671 12.0444 40.2671 17.7333V20.8444C40.2671 26.5778 43.8148 30.0889 49.4913 30.0889C55.1677 30.0889 58.7154 26.5333 58.7154 20.8444V17.7333C58.7154 12.0444 55.1677 8.48889 49.4913 8.48889ZM54.9016 21.0667C54.9016 24.8444 52.9503 27.0222 49.4913 27.0222C46.0322 27.0222 44.0809 24.8889 44.0809 21.0667V17.5556C44.0809 13.7778 46.0765 11.6 49.4913 11.6C52.906 11.6 54.9016 13.7778 54.9016 17.5556V21.0667ZM70.29 14C68.3387 14 66.6979 14.8 65.8109 16.1333L65.4118 16.7556V14.3556H61.9084V34.9333H65.5892V27.5111L65.9883 28.0889C66.8309 29.3333 68.4274 30.0444 70.3343 30.0444C73.5273 30.0444 76.7203 27.9556 76.7203 23.3333V20.7111C76.676 17.3778 74.6803 14 70.29 14ZM72.9952 23.1556C72.9952 25.6444 71.5761 27.1556 69.2257 27.1556C67.0527 27.1556 65.5449 25.5556 65.5449 23.2V20.8889C65.5449 18.5333 67.0527 16.8889 69.2257 16.8889C71.5317 16.8889 72.9508 18.4 72.9508 20.8889L72.9952 23.1556ZM119.604 8.93334L112.198 29.6889H115.923L117.342 25.2444H125.857V25.2889L127.276 29.6889H131.001L123.551 8.93334H119.604ZM118.273 22.3111L121.644 11.8222L124.97 22.3111H118.273Z" fill="#1C3F3A"/>
<path id="Vector_2" d="M33.0824 14.7111C33.8806 12.2667 33.6145 9.55556 32.3285 7.33333C30.3772 3.91111 26.4303 2.17778 22.5721 2.97778C20.887 1.06667 18.4035 0 15.8314 0C11.8845 0 8.42545 2.53333 7.18373 6.26667C4.65596 6.8 2.48295 8.35556 1.19689 10.6222C-0.754377 14.0444 -0.310908 18.3111 2.30556 21.2444C1.50732 23.7333 1.81775 26.4 3.10381 28.6222C5.05508 32.0444 9.00196 33.8222 12.8601 32.9778C14.5897 34.8889 17.0288 36 19.6009 36C23.5478 36 27.0068 33.4667 28.2486 29.7333C30.7763 29.2 32.9493 27.6444 34.2354 25.3778C36.1867 21.9556 35.7432 17.6444 33.0824 14.7111ZM19.6009 33.6444C18.0044 33.6444 16.4966 33.1111 15.2992 32.0889C15.3436 32.0444 15.4766 32 15.521 31.9556L22.6608 27.8222C23.0156 27.6 23.2373 27.2444 23.2373 26.8V16.7111L26.2529 18.4444C26.2973 18.4444 26.2973 18.4889 26.2973 18.5333V26.8889C26.3416 30.6222 23.326 33.6444 19.6009 33.6444ZM5.14377 27.4667C4.34553 26.0889 4.07944 24.4889 4.34553 22.9333C4.38987 22.9778 4.47857 23.0222 4.56726 23.0667L11.7071 27.2C12.0619 27.4222 12.5054 27.4222 12.8601 27.2L21.5965 22.1333V25.6444C21.5965 25.6889 21.5965 25.7333 21.5522 25.7333L14.3236 29.9111C11.1306 31.7778 7.00635 30.6667 5.14377 27.4667ZM3.2812 11.8222C4.07944 10.4444 5.32116 9.42222 6.78461 8.84444V17.3778C6.78461 17.7778 7.00635 18.1778 7.36112 18.4L16.0975 23.4667L13.0819 25.2C13.0375 25.2 12.9932 25.2444 12.9932 25.2L5.76463 21.0222C2.48295 19.1556 1.41862 15.0222 3.2812 11.8222ZM28.1155 17.6L19.3792 12.5333L22.3948 10.8C22.4391 10.8 22.4834 10.7556 22.4834 10.8L29.712 14.9778C32.9493 16.8444 34.0137 20.9778 32.1511 24.1778C31.3528 25.5556 30.1111 26.5778 28.6477 27.1111V18.6222C28.692 18.2222 28.4703 17.8222 28.1155 17.6ZM31.0868 13.0667C31.0424 13.0222 30.9537 12.9778 30.865 12.9333L23.7252 8.8C23.3704 8.57778 22.9269 8.57778 22.5721 8.8L13.8358 13.8667V10.3556C13.8358 10.3111 13.8358 10.2667 13.8801 10.2667L21.1087 6.08889C24.346 4.22222 28.4259 5.33333 30.2885 8.57778C31.0868 9.91111 31.3528 11.5111 31.0868 13.0667ZM12.1949 19.2889L9.17935 17.5556C9.135 17.5556 9.135 17.5111 9.135 17.4667V9.11111C9.135 5.37778 12.1506 2.35556 15.8757 2.35556C17.4722 2.35556 18.98 2.88889 20.1774 3.91111C20.1331 3.95556 20.0444 4 19.9557 4.04444L12.8158 8.17778C12.461 8.4 12.2393 8.75556 12.2393 9.2V19.2889H12.1949ZM13.8358 15.7333L17.7383 13.4667L21.6409 15.7333V20.2222L17.7383 22.4889L13.8358 20.2222V15.7333Z" fill="#1C3F3A"/>
</g>
</g>
<defs>
<clipPath id="clip0_5301_3201">
<rect width="145.946" height="36" fill="white"/>
</clipPath>
</defs>
</svg>
