<svg width="119" height="36" viewBox="0 0 119 36" fill="none" xmlns="http://www.w3.org/2000/svg">
<g id="Loom svg" clip-path="url(#clip0_5301_3188)">
<g id="Group">
<path id="Vector" d="M45.4373 31.1229V4.8197H50.2354V31.1229H45.4373Z" fill="#1C3F3A"/>
<path id="Vector_2" d="M91.5112 13.2383H96.0781V15.4448C97.0608 13.7028 99.3154 12.7738 101.281 12.7738C103.709 12.7738 105.674 13.819 106.541 15.7351C107.929 13.5286 109.837 12.7738 112.149 12.7738C115.444 12.7738 118.566 14.748 118.566 19.5674V31.1222H113.883V20.4964C113.883 18.5803 112.958 17.1286 110.761 17.1286C108.68 17.1286 107.466 18.7544 107.466 20.6706V31.1222H102.726V20.4964C102.726 18.5803 101.743 17.1286 99.6044 17.1286C97.5233 17.1286 96.2515 18.6964 96.2515 20.6706V31.1222H91.4534L91.5112 13.2383Z" fill="#1C3F3A"/>
<path id="Vector_3" d="M61.1033 31.6457C55.6693 31.6457 51.7961 27.6393 51.7961 22.1812C51.7961 16.8393 55.7271 12.7167 61.1033 12.7167C66.5374 12.7167 70.4106 16.8973 70.4106 22.1812C70.4684 27.5231 66.5374 31.6457 61.1033 31.6457ZM61.1033 17.0715C58.3285 17.0715 56.0162 19.336 56.0162 22.1812C56.0162 24.9683 58.2707 27.2909 61.1033 27.2909C63.8782 27.2909 66.1905 25.0264 66.1905 22.1812C66.1905 19.3941 63.8782 17.0715 61.1033 17.0715Z" fill="#1C3F3A"/>
<path id="Vector_4" d="M80.7008 31.6457C75.2667 31.6457 71.3936 27.6393 71.3936 22.1812C71.3936 16.8393 75.3246 12.7167 80.7008 12.7167C86.1348 12.7167 90.008 16.8973 90.008 22.1812C90.008 27.5231 86.1348 31.6457 80.7008 31.6457ZM80.7008 17.0134C77.8681 17.0134 75.5558 19.336 75.5558 22.1812C75.5558 25.0264 77.8681 27.3489 80.7008 27.3489C83.5334 27.3489 85.8457 25.0264 85.8457 22.1812C85.8457 19.336 83.5334 17.0134 80.7008 17.0134Z" fill="#1C3F3A"/>
<path id="Vector_5" d="M35.7836 15.9677H25.3202L34.3962 10.7419L32.4307 7.25806L23.3547 12.4839L28.5575 3.36774L25.089 1.39355L19.8862 10.5097V0H15.8974V10.5097L10.6946 1.39355L7.22609 3.36774L12.4289 12.4839L3.35291 7.25806L1.38741 10.7419L10.4634 15.9677H0V19.9742H10.4634L1.38741 25.2L3.35291 28.6839L12.4289 23.4581L7.22609 32.5742L10.6946 34.5484L15.8974 25.4323V35.9419H19.8862V25.4323L25.089 34.5484L28.5575 32.5742L23.3547 23.4581L32.4307 28.6839L34.3962 25.2L25.3202 19.9742H35.7836V15.9677ZM17.8629 23.4C14.8568 23.4 12.4289 20.9613 12.4289 17.9419C12.4289 14.9226 14.8568 12.4839 17.8629 12.4839C20.869 12.4839 23.2969 14.9226 23.2969 17.9419C23.2969 20.9613 20.869 23.4 17.8629 23.4Z" fill="#1C3F3A"/>
</g>
</g>
<defs>
<clipPath id="clip0_5301_3188">
<rect width="118.681" height="36" fill="white"/>
</clipPath>
</defs>
</svg>
