<svg width="152" height="40" viewBox="0 0 152 40" fill="none" xmlns="http://www.w3.org/2000/svg">
<g id="Raycast svg" clip-path="url(#clip0_5301_3206)">
<path id="Vector" d="M149.737 29.7996C148.408 29.7996 147.368 29.4397 146.626 28.7172C145.883 27.9948 145.512 26.9912 145.512 25.7196V17.8381H143.127V14.8878H145.525L145.952 10.9471H148.771V14.8878H152.438V17.8434H148.758V25.2914C148.75 25.6986 148.902 26.0927 149.182 26.3896C149.325 26.5411 149.498 26.6602 149.691 26.7386C149.885 26.817 150.092 26.853 150.301 26.8441H152.425V29.7996H149.737Z" fill="#1C3F3A"/>
<path id="Vector_2" d="M135.394 30.0781C133.621 30.0781 132.195 29.6561 131.116 28.8119C130.044 27.9751 129.308 26.7817 129.044 25.4491H132.569C132.723 25.9613 133.065 26.3965 133.527 26.6681C134.093 26.9944 134.74 27.1538 135.394 27.1278C137.273 27.1278 138.218 26.6024 138.218 25.5883C138.218 25.0821 137.922 24.696 137.331 24.4297C136.644 24.1355 135.925 23.9213 135.188 23.7913C134.351 23.6311 133.511 23.4235 132.658 23.1713C131.81 22.9212 131.057 22.4212 130.497 21.7369C129.909 21.0363 129.615 20.1151 129.613 18.9731C129.604 18.3731 129.733 17.7791 129.992 17.2373C130.25 16.6955 130.63 16.2205 131.103 15.8494C132.1 15.0192 133.482 14.605 135.249 14.6068C137.016 14.6085 138.42 15.0026 139.461 15.789C140.496 16.5697 141.207 17.703 141.459 18.9731H137.926C137.55 18.0405 136.662 17.5649 135.257 17.5623C133.748 17.5623 132.995 18.0326 132.995 18.9731C132.998 19.1887 133.058 19.3997 133.17 19.5844C133.281 19.7691 133.44 19.9208 133.63 20.024C134.113 20.3151 134.65 20.5063 135.209 20.5862C135.909 20.7049 136.6 20.8645 137.281 21.0643C137.987 21.2659 138.679 21.5133 139.353 21.8052C140.01 22.1016 140.565 22.5839 140.951 23.1923C141.397 23.907 141.62 24.7386 141.59 25.5804C141.604 26.2072 141.468 26.8284 141.194 27.3922C140.919 27.956 140.513 28.4463 140.011 28.8224C138.963 29.6578 137.424 30.0764 135.394 30.0781Z" fill="#1C3F3A"/>
<path id="Vector_3" d="M124.883 16.099C123.797 15.1234 122.275 14.6356 120.318 14.6356C118.758 14.6356 117.45 15.0551 116.393 15.894C115.351 16.7121 114.614 17.8569 114.303 19.1438H117.636C117.805 18.6564 118.129 18.237 118.557 17.9485C119.078 17.6004 119.695 17.4265 120.321 17.4519C121.237 17.4519 121.958 17.6884 122.488 18.156C122.756 18.4053 122.966 18.7108 123.103 19.0505C123.239 19.3902 123.299 19.7558 123.277 20.1211V20.8331H119.463C117.708 20.8331 116.329 21.2754 115.327 22.1598C114.848 22.568 114.466 23.0769 114.207 23.6502C113.949 24.2235 113.821 24.8468 113.832 25.4753C113.814 26.0966 113.929 26.7146 114.169 27.2881C114.409 27.8616 114.769 28.3775 115.225 28.8013C116.151 29.677 117.38 30.1149 118.91 30.1149C119.858 30.1365 120.796 29.9187 121.637 29.4818C122.314 29.1516 122.886 28.6416 123.29 28.0079H123.427L123.704 29.8469H126.523V20.1264C126.518 18.4205 125.971 17.078 124.883 16.099ZM123.28 24.0645C123.299 24.5068 123.221 24.948 123.051 25.3566C122.88 25.7653 122.621 26.1314 122.293 26.429C121.638 27.0087 120.745 27.2994 119.613 27.3012C118.789 27.3012 118.157 27.112 117.723 26.7442C117.512 26.5731 117.343 26.3561 117.229 26.1098C117.115 25.8634 117.059 25.5943 117.065 25.3229C117.065 24.0094 117.926 23.3578 119.613 23.3578H123.28V24.0645Z" fill="#1C3F3A"/>
<path id="Vector_4" d="M105.371 30.1096C103.232 30.1096 101.522 29.4248 100.243 28.0552C98.9636 26.6856 98.323 24.7905 98.3213 22.37C98.3213 19.9548 98.9592 18.0615 100.235 16.6901C101.511 15.3187 103.223 14.6339 105.371 14.6356C107.115 14.6356 108.561 15.0998 109.709 16.028C110.835 16.9247 111.637 18.1634 111.994 19.5563H108.759C108.442 18.9392 107.954 18.4259 107.354 18.0775C106.753 17.7291 106.065 17.5603 105.371 17.5912C104.844 17.5723 104.32 17.6751 103.84 17.8916C103.359 18.108 102.936 18.4323 102.602 18.8391C101.9 19.6745 101.549 20.8515 101.549 22.37C101.549 23.8885 101.9 25.0655 102.602 25.9009C102.935 26.3087 103.359 26.6339 103.839 26.8513C104.32 27.0687 104.844 27.1723 105.371 27.1541C106.065 27.1838 106.753 27.0142 107.354 26.6654C107.954 26.3166 108.442 25.8033 108.759 25.1863H111.991C111.636 26.5803 110.833 27.8201 109.706 28.7172C108.562 29.6455 107.117 30.1096 105.371 30.1096Z" fill="#1C3F3A"/>
<path id="Vector_5" d="M86.2992 35.4665L88.5552 29.8338L82.498 14.922H86.0228L90.111 25.4753H90.2479L94.3413 14.922H97.8661L89.6845 35.4665H86.2992Z" fill="#1C3F3A"/>
<path id="Vector_6" d="M79.4498 16.099C78.3635 15.1234 76.8419 14.6356 74.8852 14.6356C73.3242 14.6356 72.0132 15.0533 70.9603 15.894C69.9168 16.7116 69.1804 17.8566 68.8701 19.1438H72.2028C72.3709 18.6557 72.6945 18.2359 73.1241 17.9485C73.644 17.5997 74.2619 17.4257 74.8878 17.4519C75.8039 17.4519 76.5261 17.6866 77.0543 18.156C77.3234 18.4049 77.5338 18.7102 77.6704 19.05C77.8069 19.3899 77.8662 19.7557 77.844 20.1211V20.8331H74.027C72.2721 20.8331 70.8936 21.2754 69.8915 22.1598C69.412 22.5676 69.0291 23.0765 68.7705 23.6499C68.512 24.2232 68.3841 24.8467 68.3963 25.4753C68.3775 26.0965 68.4917 26.7145 68.7314 27.2881C68.9711 27.8617 69.3307 28.3776 69.7862 28.8013C70.7128 29.677 71.9413 30.1149 73.4716 30.1149C74.4196 30.1365 75.3577 29.9187 76.1988 29.4818C76.8751 29.1516 77.4472 28.6416 77.8519 28.0079H77.9888L78.2652 29.8469H81.0819V20.1264C81.0819 18.4205 80.5379 17.078 79.4498 16.099ZM77.844 24.0645C77.864 24.5069 77.7859 24.9481 77.6152 25.3569C77.4446 25.7656 77.1856 26.1317 76.8569 26.429C76.204 27.0105 75.3108 27.3012 74.1771 27.3012C73.3531 27.3012 72.7187 27.1147 72.287 26.7442C72.0762 26.5729 71.9074 26.3558 71.7934 26.1095C71.6793 25.8632 71.6231 25.5942 71.6289 25.3229C71.6377 24.0146 72.4871 23.3596 74.1771 23.3578H77.844V24.0645Z" fill="#1C3F3A"/>
<path id="Vector_7" d="M61.1646 22.37C61.6671 22.2359 62.1528 22.0456 62.6125 21.8025C63.1487 21.5093 63.6503 21.1568 64.1077 20.7517C64.6604 20.2437 65.0868 19.614 65.3528 18.9126C65.6731 18.0888 65.8313 17.2111 65.8187 16.3275C65.8187 14.4517 65.2185 12.949 64.0182 11.8193C62.8178 10.6896 61.2559 10.1265 59.3325 10.13H51.1536V29.8338H54.6784V22.5224H57.3529L62.4334 29.8338H66.3821L61.1646 22.37ZM54.6784 19.4066V13.2327H59.0455C60.0458 13.2327 60.8356 13.5033 61.4147 14.0445C61.9938 14.5857 62.2852 15.3441 62.2887 16.3196C62.2887 17.2952 61.9956 18.0553 61.4094 18.6C60.765 19.1601 59.928 19.4492 59.0745 19.4066H54.6784Z" fill="#1C3F3A"/>
<path id="Vector_8" fill-rule="evenodd" clip-rule="evenodd" d="M39.524 19.9793L37.4655 22.0337L29.6551 14.2389V10.1274L39.524 19.9793ZM19.7809 0.275513L17.7224 2.32996L25.5327 10.1248H29.6525L19.7809 0.275513ZM15.3611 4.69441L13.2999 6.75148L16.6905 10.1353H20.8102L15.3611 4.69441ZM29.6525 18.9573V23.0688L33.043 26.4526L35.1042 24.3955L29.6525 18.9573ZM28.4731 26.6024L29.6525 25.4254H14.3318V10.1274L13.1525 11.3044L10.9413 9.09754L8.87484 11.1572L11.0861 13.3641L9.90675 14.541V16.9055L6.5162 13.5217L4.45503 15.5788L9.90675 21.0196V25.7118L2.09902 17.9248L0.0378418 19.9819L19.7809 39.6857L21.8421 37.6286L14.0317 29.8338H18.7517L24.2034 35.2746L26.2645 33.2176L22.874 29.8338H25.2432L26.4225 28.6568L28.6337 30.8636L30.6949 28.8066L28.4731 26.6024Z" fill="#1C3F3A"/>
</g>
<defs>
<clipPath id="clip0_5301_3206">
<rect width="152" height="40" fill="white"/>
</clipPath>
</defs>
</svg>
